<?xml version="1.0"?>
<svg width="800" height="800" xmlns="http://www.w3.org/2000/svg" xmlns:svg="http://www.w3.org/2000/svg">
 <g class="layer">
  <title>Layer 1</title>
  <path d="m227.39,330.83l79.27,-110.92c-32.98,-5.54 -93.51,-6.72 -142.97,42.6c-78.22,77.81 -109.86,245.85 -116.46,286.6l198.63,197.71c35.74,-3.03 194.02,-24.14 346.61,-175.94c1.58,-3.3 38.77,-30.6 8.45,-60.8c-14.51,-14.51 -38.51,-14.24 -53.42,0.53c-7.52,7.52 -19.25,7.65 -26.65,0.27c-7.38,-7.38 -7.25,-18.99 0.27,-26.51l53.94,-53.68c27.43,-27.31 1.58,-73.33 -36.67,-62.25l-44.19,37.59c-8.04,6.99 -20.05,5.81 -26.65,-1.85c-6.86,-7.79 -5.4,-19.79 2.51,-26.51c154.05,-134.66 131.63,-118.44 230.81,-210.9c36.93,-30.73 -9.63,-85.07 -46.17,-53.94l-239.92,214.72c-6.99,5.94 -17.67,6.06 -24.53,-0.27c-7.91,-6.86 -8.04,-16.62 -2.9,-24.4l167.37,-259.03c24.4,-32.98 -23.74,-69.51 -49.46,-36.27l-247.43,344.5c-5.94,8.57 -17.93,10.55 -26.11,4.49a18.2,18.2 0 0 1 -4.35,-25.72l0.01,0z" fill="#ffffff" id="svg_1" transform="rotate(45 380.803 370.624)"/>
 </g>
</svg>