<?xml version="1.0"?>
<svg width="800" height="800" xmlns="http://www.w3.org/2000/svg" xmlns:svg="http://www.w3.org/2000/svg">
 <g class="layer">
  <title>Layer 1</title>
  <path d="m751.39,214.3c-10.54,-133.34 -160.17,-119.68 -160.17,-119.68c-63.21,-111.28 -161.98,-30.62 -161.98,-30.62c-75.72,-109.14 -170.87,-8.07 -170.87,-8.07c-163.79,-17.61 -157.54,116.38 -157.54,116.38c-3.79,42.47 23.21,174.33 23.21,174.33c-24.36,-76.05 -77.04,-12.84 -77.04,-12.84c-64.86,99.92 -16.13,154.74 -16.13,154.74c87.74,102.88 274.74,226.18 274.74,226.18c67.66,38.85 39.01,73.42 39.01,73.42l409.56,-67.66l9.38,-77.7c62.22,-188.16 -12.18,-428.49 -12.18,-428.49z" fill="#ffffff" id="svg_1" transform="rotate(90 400.842 400.735)"/>
 </g>
</svg>