<?xml version="1.0"?>
<svg width="800" height="800" xmlns="http://www.w3.org/2000/svg" xmlns:svg="http://www.w3.org/2000/svg">
 <g class="layer">
  <title>Layer 1</title>
  <path d="m703.01,167.31a39.08,39.08 0 0 0 -16.6,-2.68c-7.63,0.54 -13.78,3.75 -17.4,8.7c-21.41,30.11 -39.08,86.99 -53.27,132.63c-6.42,21.15 -15.26,49.38 -21.55,62.77c-6.56,-37.61 0.8,-175.19 3.75,-228.18l0,-0.94c2.01,-36.8 2.28,-43.23 1.87,-46.04c-3.21,-20.21 -11.24,-33.46 -24.09,-39.35c-12.85,-6.02 -29.71,-3.35 -47.78,7.49c-9.1,5.49 -11.64,24.22 -19.41,109.61l0,0.4c-4.28,46.84 -14.19,154.71 -26.23,172.78c-13.78,-25.16 -32.52,-168.09 -40.69,-229.92c-5.75,-43.23 -9.1,-68.12 -11.24,-75.62c-4.68,-15.79 -24.49,-29.18 -44.16,-29.98c-16.33,-0.8 -29.71,7.49 -36.13,21.95c-11.91,13.38 -7.63,57.41 5.49,161.94c6.29,49.79 19.27,152.57 11.11,164.08c-16.19,-1.74 -44.3,-66.11 -83.11,-191.38c-10.97,-35.06 -14.32,-45.64 -17.67,-50.19c-6.56,-16.06 -29.04,-28.51 -49.12,-27.03a42.56,42.56 0 0 0 -5.09,0.54c-10.57,2.14 -34.66,11.91 -29.44,56.61c14.19,62.1 29.58,107.6 44.57,151.9l0.27,0.8c8.97,26.5 17.4,51.53 25.29,79.36c18.6,65.58 11.38,106.26 11.24,106.66c-0.54,4.15 -1.87,6.83 -3.88,7.63a7.49,7.49 0 0 1 -2.54,0.67c-5.89,0.4 -14.72,-3.48 -19.27,-6.02c-10.31,-19.81 -61.96,-114.43 -108.81,-127.54l-1.74,-0.4l-1.61,0.13c-17.26,1.61 -29.84,8.03 -37.61,19.27c-12.18,17.67 -7.09,40.15 -5.89,44.7l0.67,1.61c0.4,0.67 37.87,69.06 43.76,100.91c4.95,27.3 30.92,56.88 51.79,80.7l0.8,0.94c6.83,7.76 12.71,14.59 17.26,20.74c60.49,63.04 156.18,116.17 156.99,116.57c11.91,8.83 18.47,17.26 19.27,24.63a10.71,10.71 0 0 1 -2.14,7.76l-2.14,2.14l13.25,12.85l252.27,-17.67l10.84,-49.38c33.19,-139.19 26.23,-257.89 26.1,-258.7c0.13,-4.28 9.5,-46.57 17,-80.7l0.27,-0.8c14.86,-67.99 33.46,-152.57 37.07,-184.82c1.61,-13.65 -7.23,-26.36 -22.35,-32.12l0.03,-0.01z" fill="#ffffff" id="svg_1" transform="rotate(90 402.855 400.218)"/>
 </g>
</svg>